<?xml version="1.0" standalone="no"?>
<!DOCTYPE svg PUBLIC "-//W3C//DTD SVG 20010904//EN"
 "http://www.w3.org/TR/2001/REC-SVG-20010904/DTD/svg10.dtd">
<svg version="1.0" xmlns="http://www.w3.org/2000/svg"
 width="824.000000pt" height="459.000000pt" viewBox="0 0 824.000000 459.000000"
 preserveAspectRatio="xMidYMid meet">

<g transform="translate(0.000000,459.000000) scale(0.100000,-0.100000)"
fill="#000000" stroke="none">
<path d="M4099 3805 c-20 -7 -154 -72 -296 -144 -202 -102 -269 -131 -299
-131 -22 0 -50 -7 -62 -16 -21 -15 -22 -20 -22 -197 l0 -183 -65 -152 c-61
-141 -65 -154 -53 -180 l13 -27 160 0 159 0 15 27 c14 25 12 33 -52 181 l-67
155 0 125 c0 69 4 128 10 132 7 4 161 -65 179 -81 2 -1 5 -97 8 -211 4 -192 6
-213 29 -275 16 -42 43 -86 70 -117 24 -27 44 -52 44 -55 0 -3 -10 -6 -22 -6
-42 0 -184 -43 -263 -80 -92 -42 -145 -85 -181 -145 -24 -42 -24 -46 -22 -231
l3 -188 25 -13 c19 -10 186 -13 753 -13 l728 0 25 25 26 26 -4 177 c-2 141 -6
183 -20 207 -28 52 -99 113 -172 149 -73 36 -231 86 -270 86 -36 0 -35 8 4 50
45 48 84 127 99 198 6 29 11 135 11 235 l0 182 136 68 c103 52 135 72 132 85
-4 22 -657 352 -696 351 -15 0 -43 -6 -63 -14z m306 -462 l-250 -125 -185 93
-185 94 201 3 c145 2 205 6 212 15 21 27 22 54 3 78 -19 23 -24 24 -211 29
l-193 5 178 92 179 91 250 -125 251 -125 -250 -125z m-250 -223 c36 0 73 14
175 65 71 36 132 65 136 65 3 0 4 -78 2 -172 -3 -158 -5 -177 -27 -220 -74
-146 -245 -214 -395 -157 -76 28 -147 93 -176 161 -18 42 -23 77 -27 203 -3
84 -3 160 0 169 6 14 27 6 137 -49 102 -51 139 -65 175 -65z m-657 -202 c11
-27 11 -28 -23 -28 l-35 0 17 35 c18 37 22 36 41 -7z m821 -364 c33 -4 61 -10
61 -15 0 -9 -197 -328 -215 -347 -10 -11 -34 22 -124 166 -61 99 -111 182
-111 185 0 13 289 21 389 11z m-387 -244 c71 -111 128 -204 128 -206 0 -2
-129 -4 -286 -4 l-286 0 4 129 c3 145 8 154 93 209 43 27 193 84 210 79 5 -2
67 -95 137 -207z m687 178 c74 -25 132 -60 170 -103 l31 -36 0 -124 0 -125
-286 0 -286 0 14 23 c8 12 68 106 132 210 132 211 110 195 225 155z"/>
<path d="M1595 1795 c-132 -34 -205 -111 -205 -214 1 -130 59 -185 320 -304
41 -18 82 -42 90 -51 23 -28 18 -85 -9 -107 -26 -21 -102 -26 -145 -9 -23 8
-26 15 -26 60 l0 50 -120 0 -120 0 0 -79 0 -79 48 -30 c84 -54 164 -75 287
-76 139 -1 198 17 265 83 56 53 75 109 66 184 -11 99 -53 136 -246 222 -135
59 -180 95 -180 143 0 59 79 91 154 62 23 -8 26 -15 26 -55 l0 -46 116 3 116
3 0 68 c0 83 -8 94 -108 143 -64 32 -81 36 -170 40 -67 2 -118 -1 -159 -11z"/>
<path d="M2046 1782 c-2 -4 -3 -61 -1 -127 l4 -120 76 -3 75 -3 0 33 c0 54 23
78 76 78 l44 0 0 -248 c0 -262 -2 -272 -47 -272 -22 0 -23 -3 -23 -75 l0 -75
195 0 196 0 -3 73 c-3 68 -4 72 -28 75 -50 7 -50 8 -50 273 l0 249 43 0 c57 0
68 -10 74 -64 l6 -47 76 3 76 3 0 125 0 125 -392 3 c-215 1 -394 -1 -397 -6z"/>
<path d="M2850 1715 l0 -75 30 0 c19 0 33 -7 40 -19 6 -12 10 -107 10 -238 0
-120 4 -234 10 -253 14 -50 64 -107 119 -134 103 -53 277 -59 396 -15 71 26
139 90 154 146 6 21 11 134 11 256 0 131 4 226 10 238 7 12 21 19 40 19 l30 0
0 75 0 75 -190 0 -190 0 0 -75 c0 -73 1 -75 25 -75 42 0 46 -24 43 -266 l-3
-226 -28 -24 c-40 -34 -124 -34 -164 0 l-28 24 -3 226 c-3 238 0 262 40 268
21 3 23 9 26 76 l3 72 -191 0 -190 0 0 -75z"/>
<path d="M3730 1715 l0 -75 30 0 c19 0 33 -7 40 -19 13 -25 13 -441 0 -475 -7
-20 -16 -26 -40 -26 l-30 0 0 -76 0 -76 253 4 c247 3 253 3 307 29 140 65 210
191 210 376 0 229 -88 365 -260 402 -28 6 -153 11 -280 11 l-230 0 0 -75z
m480 -110 c37 -38 60 -123 60 -225 0 -110 -22 -187 -65 -227 -32 -30 -40 -33
-100 -33 l-65 0 0 261 0 261 70 -4 c62 -3 74 -7 100 -33z"/>
<path d="M4482 1718 c3 -69 4 -73 28 -76 50 -7 50 -9 50 -257 0 -129 -3 -240
-6 -249 -3 -9 -14 -16 -24 -16 -44 0 -50 -9 -50 -81 l0 -69 330 0 330 0 0 105
0 105 -105 0 c-94 0 -105 -2 -105 -18 0 -30 -22 -42 -77 -42 l-53 0 0 95 0 95
70 0 70 0 0 70 0 70 -70 0 -70 0 0 95 0 95 53 0 c55 0 77 -12 77 -42 0 -16 11
-18 105 -18 l105 0 0 105 0 105 -330 0 -331 0 3 -72z"/>
<path d="M5180 1715 l0 -75 28 0 c51 0 52 -6 52 -260 0 -254 -1 -260 -52 -260
l-28 0 0 -75 0 -75 195 0 195 0 0 75 0 75 -30 0 c-44 0 -51 23 -48 166 l3 126
141 -218 141 -219 87 -3 86 -3 0 316 c0 199 4 323 10 336 7 12 21 19 40 19
l30 0 0 75 0 75 -195 0 -195 0 0 -75 0 -75 29 0 c47 0 52 -15 49 -160 l-3
-133 -140 219 -141 219 -127 3 -127 3 0 -76z"/>
<path d="M6060 1660 l0 -131 78 3 77 3 3 40 c5 54 16 65 73 65 l49 0 0 -234
c0 -129 -4 -246 -10 -260 -7 -20 -16 -26 -40 -26 l-30 0 0 -75 0 -75 195 0
195 0 0 75 0 75 -30 0 c-19 0 -33 7 -40 19 -6 12 -10 114 -10 260 l0 241 50 0
c56 0 70 -15 70 -74 l0 -36 80 0 80 0 0 130 0 130 -395 0 -395 0 0 -130z"/>
<path d="M2908 756 c-89 -33 -134 -89 -150 -188 -26 -152 46 -271 180 -299 62
-12 141 -5 184 17 24 13 27 17 17 35 -8 16 -16 19 -32 13 -12 -4 -53 -9 -92
-11 -61 -4 -75 -1 -105 19 -100 66 -109 251 -18 334 37 33 42 35 106 32 61 -3
67 -5 72 -28 5 -20 13 -26 43 -28 l37 -3 0 40 c0 35 -4 43 -31 57 -43 22 -164
28 -211 10z"/>
<path d="M3325 754 c-89 -33 -130 -109 -130 -239 0 -178 87 -266 248 -252 80
7 138 43 169 104 20 41 23 62 22 148 0 82 -4 108 -22 145 -46 94 -173 136
-287 94z m191 -77 c30 -35 44 -87 44 -162 0 -80 -16 -132 -50 -167 -25 -24
-36 -28 -85 -28 -104 0 -144 43 -153 161 -6 91 13 166 52 202 28 27 35 29 99
25 61 -3 72 -7 93 -31z"/>
<path d="M3660 732 c0 -24 5 -31 23 -34 22 -3 22 -6 25 -163 3 -182 0 -205
-28 -205 -16 0 -20 -7 -20 -30 l0 -30 85 0 85 0 0 30 c0 23 -4 30 -20 30 -24
0 -33 29 -28 91 3 44 3 44 44 47 42 3 42 3 78 -62 41 -73 42 -76 21 -76 -10 0
-15 -10 -15 -30 l0 -30 86 0 85 0 -3 28 c-2 21 -9 28 -30 30 -21 3 -33 16 -63
74 -30 56 -35 72 -24 79 8 5 19 9 25 9 7 0 26 16 43 35 26 30 31 44 31 85 0
64 -15 95 -59 123 -32 20 -52 22 -188 25 l-153 4 0 -30z m300 -50 c17 -14 23
-29 23 -60 0 -80 -40 -107 -148 -100 l-50 3 -3 88 -3 87 80 0 c61 0 84 -4 101
-18z"/>
<path d="M4130 731 c0 -23 5 -30 23 -33 22 -3 22 -6 25 -163 3 -182 0 -205
-28 -205 -16 0 -20 -7 -20 -30 l0 -30 85 0 85 0 0 30 c0 23 -5 30 -19 30 -10
0 -22 7 -25 16 -9 25 -7 276 3 270 4 -3 57 -82 117 -176 104 -162 110 -170
142 -170 l32 0 0 214 0 215 23 3 c16 2 23 11 25 31 l3 27 -90 0 -91 0 0 -30
c0 -23 4 -30 20 -30 11 0 23 -6 26 -13 2 -7 3 -73 2 -146 l-3 -134 -114 177
-113 176 -54 0 c-53 0 -54 -1 -54 -29z"/>
<path d="M4650 731 c0 -23 5 -30 23 -33 22 -3 22 -4 22 -183 0 -179 0 -180
-22 -183 -18 -3 -23 -10 -23 -33 l0 -29 180 0 180 0 0 50 0 50 -34 0 c-25 0
-35 -5 -39 -20 -5 -18 -14 -20 -81 -20 l-76 0 0 80 0 80 65 0 c63 0 65 1 65
25 0 24 -2 25 -65 25 l-65 0 0 80 0 80 76 0 c67 0 76 -2 81 -20 4 -15 14 -20
39 -20 l34 0 0 50 0 50 -180 0 -180 0 0 -29z"/>
<path d="M5060 731 c0 -23 5 -30 23 -33 22 -3 22 -4 22 -183 0 -179 0 -180
-22 -183 -18 -3 -23 -10 -23 -33 l0 -29 85 0 85 0 0 30 c0 23 -4 30 -20 30
-18 0 -20 7 -20 70 l0 70 43 0 c42 0 42 -1 79 -69 34 -65 35 -69 16 -74 -14
-4 -19 -12 -16 -29 3 -22 8 -23 86 -26 l82 -3 0 30 c0 25 -4 30 -27 33 -22 2
-35 16 -66 71 -21 38 -37 70 -35 71 2 1 20 9 40 18 46 21 71 67 72 129 0 59
-23 95 -77 120 -35 15 -66 19 -184 19 l-143 0 0 -29z m296 -39 c39 -26 44 -99
10 -139 -21 -25 -31 -28 -100 -31 l-76 -4 0 91 0 91 78 0 c42 0 82 -4 88 -8z"/>
</g>
</svg>
